<?xml version="1.0" standalone="no"?>
<!DOCTYPE svg PUBLIC "-//W3C//DTD SVG 20010904//EN"
 "http://www.w3.org/TR/2001/REC-SVG-20010904/DTD/svg10.dtd">
<svg version="1.0" xmlns="http://www.w3.org/2000/svg"
 width="482.000000pt" height="482.000000pt" viewBox="0 0 482.000000 482.000000"
 preserveAspectRatio="xMidYMid meet">
<metadata>
Created by potrace 1.14, written by Peter Selinger 2001-2017
</metadata>
<g transform="translate(0.000000,482.000000) scale(0.100000,-0.100000)"
fill="#000000" stroke="none">
<path d="M702 4713 c28 -54 52 -99 54 -101 1 -2 23 24 49 57 l48 61 260 0
c227 0 258 -2 253 -15 -5 -14 -53 -75 -303 -392 -46 -57 -83 -109 -83 -115 0
-6 33 -71 73 -144 l72 -134 123 0 124 0 -7 -51 c-7 -47 -6 -51 11 -45 11 3 51
12 89 20 128 27 371 103 480 151 17 7 80 34 140 60 61 26 159 72 219 102 l109
55 71 -35 c317 -155 543 -246 721 -292 56 -14 76 -25 101 -53 l32 -35 27 19
c27 20 29 20 129 2 55 -10 107 -18 114 -18 16 0 15 -22 -4 -71 l-17 -40 -51 6
c-75 10 -280 53 -361 76 -193 55 -344 114 -577 226 l-177 85 -98 -47 c-363
-177 -597 -261 -877 -314 -54 -11 -102 -23 -106 -28 -4 -4 -10 -27 -14 -50 -7
-50 -13 -49 110 -28 279 49 505 124 823 276 79 38 149 69 156 69 6 0 92 -38
191 -84 295 -139 481 -201 764 -256 58 -11 115 -20 127 -20 35 0 36 -15 2 -82
-45 -91 -109 -177 -176 -238 -67 -61 -64 -34 -37 -309 14 -147 16 -157 49
-210 64 -103 44 -97 205 -64 l141 29 -6 -50 c-10 -72 -61 -308 -86 -391 -62
-213 -124 -361 -227 -539 -162 -280 -311 -461 -546 -659 -154 -131 -197 -162
-309 -222 -60 -32 -95 -45 -110 -41 -29 7 -200 109 -252 150 -195 152 -392
346 -487 478 -35 48 -66 88 -69 88 -3 0 -5 -33 -5 -73 1 -86 8 -98 116 -217
88 -97 280 -271 404 -366 78 -59 279 -174 305 -174 53 0 250 115 380 222 293
240 447 412 628 706 89 144 150 269 213 437 57 151 131 428 151 565 7 47 16
90 21 96 5 7 24 14 43 16 30 3 35 1 35 -17 0 -38 -29 -184 -64 -322 -101 -396
-237 -692 -461 -1001 -33 -46 -71 -100 -84 -120 -31 -48 -272 -289 -376 -376
-44 -37 -92 -78 -106 -91 -14 -13 -62 -48 -107 -77 -208 -136 -249 -155 -301
-139 -20 6 -74 34 -121 62 -47 28 -97 58 -111 65 -15 8 -37 25 -50 37 -13 13
-46 41 -74 62 -27 22 -71 57 -96 80 -25 22 -65 56 -90 75 -42 33 -98 90 -203
205 -25 28 -46 46 -46 40 0 -13 212 -231 268 -276 24 -18 54 -44 67 -55 148
-135 424 -314 485 -314 36 0 252 120 338 189 22 17 44 31 49 31 5 0 99 -165
208 -367 109 -203 208 -385 219 -405 l21 -38 783 0 782 0 0 2400 0 2400 -2080
0 -2080 0 52 -97z m3189 -187 c24 -7 57 -17 73 -21 45 -10 114 -54 141 -89 37
-49 49 -114 42 -233 -12 -192 -100 -425 -262 -698 -46 -77 -87 -148 -90 -157
-6 -15 1 -16 67 -12 40 3 105 11 143 19 242 47 326 58 338 46 17 -17 12 -340
-6 -358 -7 -7 -58 -14 -122 -18 -60 -3 -123 -7 -140 -9 -16 -2 -64 -6 -105
-10 -125 -13 -363 -56 -530 -95 -46 -11 -86 -18 -90 -16 -4 2 -10 44 -14 92
-4 48 -10 122 -15 163 l-8 75 67 65 c76 73 110 124 204 301 73 140 91 182 116
287 23 96 19 166 -11 199 -69 75 -194 68 -347 -18 -30 -17 -58 -27 -63 -22 -4
4 -17 62 -29 128 -11 66 -23 127 -25 136 -8 25 72 97 145 131 36 16 90 41 120
56 30 14 64 29 75 34 84 36 251 49 326 24z m334 -378 c4 -18 5 -58 3 -88 l-3
-54 -17 26 c-14 22 -17 39 -11 87 6 67 19 79 28 29z m-630 -129 c9 -17 14 -33
11 -36 -4 -4 -36 49 -36 62 0 13 11 2 25 -26z m-60 -10 c9 -17 14 -33 11 -36
-4 -4 -36 49 -36 62 0 13 11 2 25 -26z m-65 0 c17 -30 6 -34 -14 -4 -9 14 -12
25 -7 25 6 0 15 -9 21 -21z m-46 -31 c18 -26 21 -51 5 -46 -14 5 -41 68 -29
68 5 0 16 -10 24 -22z m775 -7 c20 -27 20 -30 4 -85 -9 -31 -19 -56 -23 -56
-4 0 -15 12 -25 26 -16 25 -16 30 0 85 10 33 19 59 21 59 1 0 12 -13 23 -29z
m-50 -179 c18 -25 19 -32 7 -65 -12 -35 -13 -36 -29 -19 -28 31 -36 65 -19 89
8 13 16 23 17 23 2 0 13 -13 24 -28z m-52 -118 c19 -29 21 -39 11 -59 -15 -33
-21 -32 -43 8 -12 22 -16 43 -11 60 8 35 16 33 43 -9z m-49 -104 c18 -24 20
-34 12 -50 -6 -11 -15 -20 -21 -20 -14 0 -43 66 -36 84 9 23 20 20 45 -14z
m-50 -89 c14 -19 18 -32 11 -36 -6 -4 -12 -5 -13 -4 -17 23 -36 55 -36 61 0
17 17 7 38 -21z m-28 -93 c0 -6 -7 -5 -15 2 -8 7 -15 17 -15 22 0 6 7 5 15 -2
8 -7 15 -17 15 -22z m465 -115 c20 -47 13 -68 -8 -26 -16 31 -22 63 -12 63 3
0 12 -17 20 -37z m0 -109 c8 -20 15 -46 15 -58 -1 -21 -1 -21 -20 3 -17 20
-29 91 -15 91 3 0 12 -16 20 -36z m0 -172 c-3 -8 -5 -21 -5 -30 -1 -31 -29 31
-29 63 l-1 30 20 -25 c11 -14 17 -31 15 -38z m-471 -102 c23 -58 20 -62 -9
-11 -28 48 -29 51 -16 51 5 0 16 -18 25 -40z m116 4 c12 -19 20 -38 17 -40 -3
-3 -15 12 -27 35 -25 50 -19 54 10 5z m240 1 c0 -5 -5 -3 -10 5 -5 8 -10 20
-10 25 0 6 5 3 10 -5 5 -8 10 -19 10 -25z m-160 -29 c0 -12 -5 -7 -19 24 -11
24 -11 24 3 6 9 -11 16 -24 16 -30z m-370 -20 c0 -6 -9 0 -20 14 -26 33 -25
52 0 21 11 -13 20 -28 20 -35z m115 24 c9 -16 13 -30 11 -30 -3 0 -12 14 -21
30 -9 17 -13 30 -11 30 3 0 12 -13 21 -30z m-45 -39 c-1 -10 -6 -7 -15 9 -19
33 -18 50 0 26 8 -11 15 -27 15 -35z m-252 14 c7 -14 12 -29 12 -33 -1 -10
-40 38 -40 49 0 18 17 8 28 -16z m-31 -71 c-5 -5 -47 62 -47 74 0 4 12 -11 26
-31 14 -21 24 -41 21 -43z m112 31 c0 -5 -6 -1 -14 9 -8 11 -15 24 -15 30 0 5
7 1 15 -10 8 -10 14 -23 14 -29z m-184 -6 c23 -43 14 -45 -13 -3 -12 19 -18
34 -12 34 5 0 17 -14 25 -31z m-95 -43 c0 -6 -9 0 -20 14 -26 33 -25 52 0 21
11 -13 20 -28 20 -35z m45 22 l16 -33 -20 25 c-20 24 -26 40 -16 40 2 0 12
-15 20 -32z"/>
<path d="M1040 2755 c0 -123 117 -573 195 -749 l22 -50 8 30 c5 16 9 32 10 37
2 4 3 14 4 22 0 8 8 15 16 15 20 0 20 3 -16 106 -41 119 -104 370 -119 469 -6
44 -15 100 -18 124 l-7 44 -48 1 -47 1 0 -50z"/>
<path d="M931 2754 c1 -27 5 -60 9 -74 5 -15 6 2 3 45 -7 83 -13 99 -12 29z"/>
<path d="M951 2645 c-6 -58 120 -506 179 -637 28 -65 35 -61 9 5 -46 113 -101
287 -133 421 -52 215 -54 222 -55 211z"/>
</g>
</svg>
