<?xml version="1.0" standalone="no"?>
<!DOCTYPE svg PUBLIC "-//W3C//DTD SVG 20010904//EN"
 "http://www.w3.org/TR/2001/REC-SVG-20010904/DTD/svg10.dtd">
<svg version="1.0" xmlns="http://www.w3.org/2000/svg"
 width="482.000000pt" height="482.000000pt" viewBox="0 0 482.000000 482.000000"
 preserveAspectRatio="xMidYMid meet">
<metadata>
Created by potrace 1.14, written by Peter Selinger 2001-2017
</metadata>
<g transform="translate(0.000000,482.000000) scale(0.100000,-0.100000)"
fill="#000000" stroke="none">
<path d="M2180 4809 c-445 -46 -883 -221 -1240 -497 -117 -91 -306 -277 -403
-397 -550 -681 -687 -1595 -362 -2405 275 -686 872 -1224 1580 -1425 256 -73
316 -80 660 -80 283 0 320 2 425 23 501 100 899 306 1254 652 369 359 594 779
698 1300 21 105 23 142 23 425 0 344 -7 404 -80 660 -177 626 -620 1170 -1205
1478 -405 214 -900 311 -1350 266z"/>
</g>
</svg>
